<svg width="22" height="38" viewBox="0 0 22 38" fill="none" xmlns="http://www.w3.org/2000/svg">
<path fill-rule="evenodd" clip-rule="evenodd" d="M9.63967 0.893693C10.1612 0.520787 10.8618 0.520787 11.3834 0.893693C17.8802 5.53895 20.8255 11.1078 21.0111 19.0976C21.0968 22.9128 20.7299 26.4061 19.6133 29.4238C18.4681 32.4433 16.4315 35.2331 13.4332 37.589C13.0549 37.8838 12.5585 37.9799 12.0976 37.8475C11.1793 37.5836 11.023 36.4941 10.5115 35.8149C9.99974 36.4945 9.84439 37.5834 8.9254 37.8475C8.46452 37.9799 7.96817 37.8838 7.58987 37.589C4.5915 35.2331 2.55499 32.4433 1.40971 29.4238C0.293102 26.4061 -0.0737632 22.9128 0.0119281 19.0976C0.197553 11.1078 3.1428 5.53895 9.63967 0.893693ZM12.9984 34.1475C14.8746 32.4208 16.0052 30.5365 16.8041 28.37C17.8092 25.7206 18.0991 22.7945 18.0119 19.1674C17.8672 12.9373 16.4108 8.88291 11.9984 5.11851V16.1295C13.7236 16.574 14.4984 18.2678 14.4984 20.1335C14.4984 21.9992 13.7236 23.6931 11.9984 24.1375V33.1465C11.9984 33.1465 12.8001 33.8864 12.9984 34.1475ZM7.99835 34.1475C6.12206 32.4208 5.01787 30.5365 4.21893 28.37C3.21389 25.7206 2.92391 22.7945 3.01112 19.1674C3.15557 12.9497 4.60442 8.8779 8.99835 5.11851V16.1295C7.27312 16.574 6.49835 18.2678 6.49835 20.1335C6.49835 21.9992 7.27312 23.6931 8.99835 24.1375V33.1465C8.99835 33.1465 8.18923 33.896 7.99835 34.1475ZM10.4984 18.1315C9.39378 18.1315 8.49835 19.0278 8.49835 20.1335C8.49835 21.2392 9.39378 22.1355 10.4984 22.1355C11.6029 22.1355 12.4984 21.2392 12.4984 20.1335C12.4984 19.0278 11.6029 18.1315 10.4984 18.1315Z" fill="white"/>
</svg>
